<?xml version="1.0" encoding="UTF-8"?>
<svg xmlns="http://www.w3.org/2000/svg" xmlns:xlink="http://www.w3.org/1999/xlink" width="50px" height="50px" viewBox="0 0 50 50" version="1.1">
<g id="surface1">
<path style=" stroke:none;fill-rule:nonzero;fill:rgb(99.215686%,99.215686%,99.215686%);fill-opacity:1;" d="M 0 0 C 16.5 0 33 0 50 0 C 50 16.5 50 33 50 50 C 33.5 50 17 50 0 50 C 0 33.5 0 17 0 0 Z M 0 0 "/>
<path style=" stroke:none;fill-rule:nonzero;fill:rgb(13.333334%,40.784314%,90.588236%);fill-opacity:1;" d="M 11.472656 20.066406 C 11.410156 20.367188 11.199219 20.546875 10.988281 20.753906 C 10.9375 20.800781 10.886719 20.847656 10.839844 20.898438 C 10.8125 20.890625 10.789062 20.882812 10.761719 20.875 C 10.625 20.832031 10.488281 20.792969 10.351562 20.753906 C 10.292969 20.734375 10.238281 20.71875 10.179688 20.699219 C 9.207031 20.414062 8.238281 20.511719 7.332031 20.957031 C 6.324219 21.519531 5.6875 22.328125 5.359375 23.4375 C 5.136719 24.320312 5.257812 25.3125 5.664062 26.121094 C 5.6875 26.171875 5.710938 26.21875 5.738281 26.269531 C 6.207031 27.132812 6.984375 27.75 7.910156 28.074219 C 8.980469 28.382812 10.035156 28.265625 11.007812 27.738281 C 11.230469 27.609375 11.429688 27.46875 11.621094 27.292969 C 11.65625 27.265625 11.691406 27.234375 11.730469 27.203125 C 12.339844 26.640625 12.792969 25.75 12.851562 24.917969 C 12.855469 24.777344 12.855469 24.636719 12.855469 24.496094 C 12.855469 24.445312 12.855469 24.398438 12.855469 24.34375 C 12.855469 24.078125 12.832031 23.863281 12.746094 23.609375 C 12.71875 23.480469 12.71875 23.480469 12.746094 23.339844 C 12.9375 23.0625 13.203125 22.804688 13.476562 22.605469 C 13.507812 22.605469 13.542969 22.605469 13.574219 22.605469 C 13.621094 22.746094 13.671875 22.886719 13.71875 23.027344 C 13.730469 23.066406 13.746094 23.109375 13.757812 23.148438 C 13.777344 23.207031 13.777344 23.207031 13.796875 23.265625 C 13.808594 23.300781 13.824219 23.335938 13.835938 23.371094 C 14.171875 24.550781 13.867188 25.90625 13.300781 26.960938 C 12.617188 28.101562 11.542969 28.859375 10.269531 29.210938 C 8.96875 29.511719 7.625 29.285156 6.5 28.59375 C 5.421875 27.867188 4.632812 26.851562 4.296875 25.585938 C 4.285156 25.542969 4.273438 25.503906 4.265625 25.460938 C 3.988281 24.167969 4.246094 22.765625 4.957031 21.65625 C 5.144531 21.378906 5.378906 21.136719 5.613281 20.898438 C 5.644531 20.867188 5.671875 20.835938 5.703125 20.800781 C 6.226562 20.234375 6.984375 19.855469 7.714844 19.628906 C 7.761719 19.613281 7.808594 19.597656 7.855469 19.585938 C 9.105469 19.25 10.339844 19.515625 11.472656 20.066406 Z M 11.472656 20.066406 "/>
<path style=" stroke:none;fill-rule:nonzero;fill:rgb(10.980392%,38.039216%,85.09804%);fill-opacity:1;" d="M 12.671875 18.875 C 12.75 18.875 12.75 18.875 12.832031 18.875 C 12.890625 18.875 12.949219 18.875 13.007812 18.878906 C 13.066406 18.878906 13.128906 18.878906 13.1875 18.878906 C 13.378906 18.878906 13.566406 18.882812 13.757812 18.882812 C 13.886719 18.886719 14.015625 18.886719 14.144531 18.886719 C 14.457031 18.890625 14.773438 18.890625 15.085938 18.894531 C 15.09375 19.253906 15.097656 19.609375 15.097656 19.96875 C 15.097656 20.089844 15.101562 20.210938 15.101562 20.332031 C 15.105469 20.507812 15.105469 20.679688 15.105469 20.855469 C 15.109375 20.910156 15.109375 20.964844 15.109375 21.019531 C 15.109375 21.398438 15.109375 21.398438 14.996094 21.589844 C 14.851562 21.714844 14.769531 21.734375 14.582031 21.738281 C 14.542969 21.738281 14.507812 21.738281 14.46875 21.738281 C 14.339844 21.726562 14.265625 21.703125 14.160156 21.628906 C 14.035156 21.449219 14.042969 21.246094 14.03125 21.03125 C 14.03125 20.996094 14.027344 20.960938 14.027344 20.921875 C 14.023438 20.832031 14.019531 20.742188 14.011719 20.652344 C 13.992188 20.675781 13.96875 20.699219 13.945312 20.722656 C 13.410156 21.265625 12.871094 21.808594 12.335938 22.351562 C 12.074219 22.613281 11.8125 22.875 11.554688 23.140625 C 11.328125 23.371094 11.101562 23.597656 10.875 23.828125 C 10.753906 23.945312 10.632812 24.066406 10.515625 24.191406 C 10.378906 24.324219 10.246094 24.460938 10.109375 24.59375 C 10.070312 24.636719 10.03125 24.675781 9.992188 24.71875 C 9.6875 25.019531 9.6875 25.019531 9.457031 25.054688 C 9.238281 25.046875 9.148438 24.996094 8.984375 24.851562 C 8.898438 24.738281 8.882812 24.648438 8.851562 24.503906 C 8.949219 23.972656 9.714844 23.433594 10.085938 23.066406 C 10.214844 22.9375 10.339844 22.8125 10.46875 22.683594 C 10.738281 22.414062 11.007812 22.144531 11.277344 21.875 C 11.59375 21.5625 11.910156 21.246094 12.222656 20.933594 C 12.347656 20.808594 12.476562 20.683594 12.601562 20.558594 C 12.679688 20.480469 12.753906 20.40625 12.832031 20.328125 C 12.867188 20.292969 12.902344 20.257812 12.9375 20.222656 C 12.96875 20.191406 13 20.160156 13.035156 20.125 C 13.0625 20.097656 13.089844 20.070312 13.117188 20.042969 C 13.1875 19.972656 13.1875 19.972656 13.230469 19.871094 C 13.191406 19.875 13.148438 19.878906 13.105469 19.882812 C 12.59375 19.90625 12.59375 19.90625 12.394531 19.738281 C 12.285156 19.632812 12.214844 19.523438 12.15625 19.382812 C 12.164062 19.214844 12.183594 19.121094 12.289062 18.988281 C 12.429688 18.875 12.496094 18.871094 12.671875 18.875 Z M 12.671875 18.875 "/>
<path style=" stroke:none;fill-rule:nonzero;fill:rgb(8.235294%,33.725491%,76.47059%);fill-opacity:1;" d="M 9.191406 21.714844 C 9.253906 21.714844 9.253906 21.714844 9.320312 21.714844 C 9.746094 21.714844 9.746094 21.714844 9.910156 21.824219 C 9.964844 21.941406 9.964844 21.941406 9.960938 22.070312 C 9.886719 22.171875 9.886719 22.171875 9.777344 22.269531 C 9.625 22.402344 9.625 22.402344 9.511719 22.566406 C 9.371094 22.710938 9.195312 22.703125 9.003906 22.722656 C 8.480469 22.796875 8.121094 22.96875 7.785156 23.386719 C 7.519531 23.769531 7.480469 24.207031 7.519531 24.660156 C 7.625 25.109375 7.855469 25.523438 8.253906 25.78125 C 8.292969 25.808594 8.292969 25.808594 8.332031 25.835938 C 8.703125 26.042969 9.160156 26.035156 9.570312 25.976562 C 10.039062 25.835938 10.328125 25.554688 10.589844 25.152344 C 10.699219 24.988281 10.824219 24.847656 10.957031 24.699219 C 10.980469 24.675781 11.003906 24.652344 11.027344 24.625 C 11.167969 24.472656 11.304688 24.335938 11.472656 24.21875 C 11.539062 24.21875 11.605469 24.21875 11.667969 24.21875 C 11.691406 25 11.558594 25.652344 11.046875 26.265625 C 10.511719 26.828125 9.828125 27.042969 9.074219 27.070312 C 8.363281 27.0625 7.714844 26.789062 7.191406 26.304688 C 6.679688 25.75 6.40625 25.054688 6.421875 24.304688 C 6.460938 23.542969 6.765625 22.882812 7.324219 22.363281 C 7.464844 22.25 7.609375 22.160156 7.761719 22.070312 C 7.804688 22.046875 7.84375 22.023438 7.882812 22 C 8.3125 21.773438 8.710938 21.710938 9.191406 21.714844 Z M 9.191406 21.714844 "/>
<path style=" stroke:none;fill-rule:nonzero;fill:rgb(5.490196%,15.686275%,27.843139%);fill-opacity:1;" d="M 39.125 22.496094 C 39.457031 22.769531 39.578125 23.019531 39.648438 23.4375 C 39.421875 23.4375 39.199219 23.4375 38.964844 23.4375 C 38.9375 23.378906 38.914062 23.316406 38.886719 23.253906 C 38.785156 23.054688 38.675781 22.957031 38.476562 22.851562 C 38.238281 22.773438 38.050781 22.78125 37.8125 22.863281 C 37.492188 23.027344 37.332031 23.203125 37.207031 23.535156 C 37.085938 24.035156 37.144531 24.523438 37.398438 24.972656 C 37.554688 25.164062 37.703125 25.269531 37.941406 25.339844 C 38.210938 25.367188 38.433594 25.328125 38.671875 25.195312 C 38.921875 24.96875 38.980469 24.738281 39.0625 24.414062 C 38.835938 24.414062 38.613281 24.414062 38.378906 24.414062 C 38.378906 24.238281 38.378906 24.058594 38.378906 23.878906 C 38.8125 23.878906 39.25 23.878906 39.699219 23.878906 C 39.710938 24.492188 39.71875 25.039062 39.308594 25.535156 C 38.929688 25.898438 38.472656 25.953125 37.972656 25.953125 C 37.65625 25.941406 37.421875 25.867188 37.160156 25.683594 C 37.113281 25.65625 37.070312 25.628906 37.023438 25.601562 C 36.585938 25.152344 36.449219 24.589844 36.453125 23.976562 C 36.472656 23.476562 36.613281 23.023438 36.964844 22.65625 C 37 22.613281 37 22.613281 37.039062 22.574219 C 37.578125 22.050781 38.535156 22.082031 39.125 22.496094 Z M 39.125 22.496094 "/>
<path style=" stroke:none;fill-rule:nonzero;fill:rgb(6.666667%,16.470589%,29.019609%);fill-opacity:1;" d="M 17.761719 22.261719 C 17.910156 22.261719 18.0625 22.265625 18.214844 22.265625 C 18.417969 22.753906 18.617188 23.25 18.8125 23.742188 C 18.828125 23.785156 18.84375 23.824219 18.859375 23.867188 C 19.125 24.535156 19.378906 25.203125 19.628906 25.878906 C 19.402344 25.878906 19.175781 25.878906 18.945312 25.878906 C 18.894531 25.761719 18.847656 25.640625 18.800781 25.523438 C 18.785156 25.488281 18.769531 25.453125 18.757812 25.417969 C 18.695312 25.273438 18.652344 25.160156 18.652344 25 C 18.167969 25 17.683594 25 17.1875 25 C 17.171875 25.097656 17.15625 25.191406 17.136719 25.292969 C 17.066406 25.492188 16.980469 25.683594 16.894531 25.878906 C 16.683594 25.878906 16.476562 25.878906 16.261719 25.878906 C 16.363281 25.523438 16.480469 25.175781 16.613281 24.832031 C 16.632812 24.777344 16.65625 24.726562 16.675781 24.671875 C 16.738281 24.507812 16.800781 24.34375 16.863281 24.179688 C 16.90625 24.070312 16.949219 23.960938 16.988281 23.847656 C 17.085938 23.59375 17.1875 23.335938 17.285156 23.082031 C 17.328125 22.964844 17.371094 22.847656 17.417969 22.734375 C 17.4375 22.675781 17.460938 22.617188 17.480469 22.558594 C 17.5 22.511719 17.519531 22.464844 17.535156 22.414062 C 17.597656 22.265625 17.597656 22.265625 17.761719 22.261719 Z M 17.761719 22.261719 "/>
<path style=" stroke:none;fill-rule:nonzero;fill:rgb(5.490196%,15.686275%,28.235295%);fill-opacity:1;" d="M 23.453125 22.25 C 23.851562 22.386719 24.105469 22.585938 24.316406 22.945312 C 24.386719 23.09375 24.402344 23.226562 24.414062 23.386719 C 24.101562 23.414062 24.101562 23.414062 23.777344 23.4375 C 23.75 23.375 23.722656 23.316406 23.695312 23.25 C 23.613281 23.089844 23.550781 22.988281 23.386719 22.902344 C 23.078125 22.796875 22.6875 22.792969 22.382812 22.929688 C 22.128906 23.082031 22.035156 23.316406 21.960938 23.59375 C 21.871094 24.074219 21.894531 24.511719 22.121094 24.949219 C 22.28125 25.164062 22.449219 25.257812 22.707031 25.339844 C 22.984375 25.371094 23.238281 25.320312 23.488281 25.195312 C 23.613281 25.082031 23.703125 24.957031 23.777344 24.804688 C 23.988281 24.828125 24.171875 24.863281 24.363281 24.949219 C 24.332031 25.238281 24.191406 25.417969 23.988281 25.617188 C 23.660156 25.871094 23.320312 25.964844 22.910156 25.957031 C 22.867188 25.957031 22.824219 25.957031 22.78125 25.957031 C 22.3125 25.941406 21.957031 25.789062 21.628906 25.453125 C 21.207031 24.910156 21.1875 24.210938 21.253906 23.550781 C 21.335938 23.117188 21.574219 22.730469 21.925781 22.460938 C 22.066406 22.382812 22.210938 22.324219 22.363281 22.265625 C 22.648438 22.121094 23.148438 22.1875 23.453125 22.25 Z M 23.453125 22.25 "/>
<path style=" stroke:none;fill-rule:nonzero;fill:rgb(5.490196%,15.294118%,27.843139%);fill-opacity:1;" d="M 26.472656 23.328125 C 26.691406 23.476562 26.828125 23.671875 26.902344 23.925781 C 26.917969 24.078125 26.914062 24.226562 26.914062 24.375 C 26.914062 24.417969 26.914062 24.460938 26.914062 24.507812 C 26.914062 24.644531 26.910156 24.78125 26.910156 24.917969 C 26.910156 25.011719 26.910156 25.105469 26.910156 25.195312 C 26.90625 25.425781 26.90625 25.652344 26.902344 25.878906 C 26.726562 25.878906 26.550781 25.878906 26.367188 25.878906 C 26.367188 25.816406 26.367188 25.75 26.367188 25.683594 C 26.320312 25.710938 26.320312 25.710938 26.273438 25.738281 C 25.910156 25.921875 25.597656 25.992188 25.195312 25.925781 C 24.980469 25.847656 24.847656 25.738281 24.707031 25.558594 C 24.621094 25.269531 24.589844 24.972656 24.707031 24.6875 C 24.859375 24.449219 25.054688 24.332031 25.324219 24.25 C 25.652344 24.1875 25.984375 24.203125 26.316406 24.21875 C 26.238281 23.984375 26.238281 23.984375 26.082031 23.804688 C 25.953125 23.773438 25.859375 23.777344 25.730469 23.792969 C 25.6875 23.800781 25.644531 23.804688 25.601562 23.808594 C 25.480469 23.828125 25.480469 23.828125 25.339844 23.878906 C 25.324219 23.925781 25.308594 23.972656 25.292969 24.023438 C 25.117188 24.023438 24.9375 24.023438 24.753906 24.023438 C 24.734375 23.878906 24.734375 23.773438 24.804688 23.640625 C 25.203125 23.132812 25.902344 23.03125 26.472656 23.328125 Z M 26.472656 23.328125 "/>
<path style=" stroke:none;fill-rule:nonzero;fill:rgb(5.490196%,15.686275%,27.843139%);fill-opacity:1;" d="M 30.878906 23.265625 C 31.160156 23.4375 31.375 23.683594 31.492188 23.988281 C 31.542969 24.21875 31.542969 24.21875 31.542969 24.753906 C 30.625 24.78125 30.625 24.78125 29.6875 24.804688 C 29.828125 25.167969 29.828125 25.167969 30.128906 25.339844 C 30.375 25.382812 30.558594 25.375 30.78125 25.25 C 30.824219 25.214844 30.863281 25.183594 30.910156 25.144531 C 31 25.085938 31 25.085938 31.105469 25.050781 C 31.207031 25.082031 31.207031 25.082031 31.3125 25.140625 C 31.34375 25.160156 31.378906 25.179688 31.414062 25.199219 C 31.441406 25.214844 31.46875 25.226562 31.496094 25.246094 C 31.414062 25.546875 31.179688 25.707031 30.921875 25.863281 C 30.726562 25.941406 30.566406 25.953125 30.355469 25.953125 C 30.320312 25.953125 30.28125 25.953125 30.246094 25.953125 C 29.847656 25.9375 29.597656 25.808594 29.328125 25.523438 C 29.03125 25.136719 29.011719 24.746094 29.050781 24.269531 C 29.117188 23.902344 29.296875 23.585938 29.597656 23.359375 C 29.976562 23.136719 30.46875 23.089844 30.878906 23.265625 Z M 30.878906 23.265625 "/>
<path style=" stroke:none;fill-rule:nonzero;fill:rgb(5.490196%,15.686275%,27.843139%);fill-opacity:1;" d="M 33.738281 23.339844 C 34.007812 23.496094 34.113281 23.746094 34.230469 24.023438 C 34.277344 24.21875 34.277344 24.21875 34.277344 24.753906 C 33.664062 24.753906 33.050781 24.753906 32.421875 24.753906 C 32.535156 25.128906 32.535156 25.128906 32.8125 25.3125 C 33.042969 25.382812 33.238281 25.367188 33.460938 25.277344 C 33.59375 25.203125 33.59375 25.203125 33.671875 25.109375 C 33.691406 25.089844 33.714844 25.070312 33.738281 25.050781 C 33.914062 25.0625 34.066406 25.125 34.230469 25.195312 C 34.195312 25.457031 34.089844 25.542969 33.894531 25.703125 C 33.527344 25.972656 33.160156 25.976562 32.714844 25.925781 C 32.347656 25.824219 32.125 25.617188 31.933594 25.292969 C 31.746094 24.949219 31.730469 24.5 31.820312 24.125 C 31.910156 23.855469 32 23.667969 32.226562 23.488281 C 32.265625 23.449219 32.308594 23.414062 32.347656 23.378906 C 32.757812 23.085938 33.304688 23.121094 33.738281 23.339844 Z M 33.738281 23.339844 "/>
<path style=" stroke:none;fill-rule:nonzero;fill:rgb(5.490196%,15.686275%,28.235295%);fill-opacity:1;" d="M 40.136719 23.242188 C 40.332031 23.242188 40.523438 23.242188 40.722656 23.242188 C 40.722656 23.292969 40.722656 23.34375 40.726562 23.398438 C 40.726562 23.589844 40.730469 23.785156 40.734375 23.976562 C 40.738281 24.058594 40.738281 24.144531 40.738281 24.226562 C 40.742188 24.347656 40.742188 24.46875 40.746094 24.585938 C 40.746094 24.625 40.746094 24.660156 40.746094 24.699219 C 40.753906 24.929688 40.792969 25.09375 40.917969 25.292969 C 41.097656 25.382812 41.308594 25.363281 41.503906 25.339844 C 41.675781 25.238281 41.734375 25.191406 41.796875 25 C 41.804688 24.867188 41.808594 24.734375 41.8125 24.601562 C 41.8125 24.5625 41.8125 24.523438 41.816406 24.484375 C 41.820312 24.359375 41.820312 24.234375 41.824219 24.113281 C 41.828125 24.027344 41.828125 23.945312 41.832031 23.859375 C 41.835938 23.652344 41.839844 23.449219 41.847656 23.242188 C 42.039062 23.242188 42.230469 23.242188 42.433594 23.242188 C 42.433594 24.113281 42.433594 24.980469 42.433594 25.878906 C 42.269531 25.878906 42.109375 25.878906 41.941406 25.878906 C 41.917969 25.78125 41.917969 25.78125 41.894531 25.683594 C 41.867188 25.703125 41.839844 25.71875 41.808594 25.738281 C 41.464844 25.933594 41.164062 25.988281 40.769531 25.925781 C 40.539062 25.84375 40.390625 25.71875 40.261719 25.507812 C 40.171875 25.316406 40.128906 25.164062 40.132812 24.949219 C 40.132812 24.910156 40.132812 24.875 40.132812 24.835938 C 40.132812 24.792969 40.132812 24.753906 40.132812 24.710938 C 40.132812 24.667969 40.132812 24.625 40.132812 24.582031 C 40.132812 24.449219 40.132812 24.316406 40.132812 24.183594 C 40.132812 24.089844 40.132812 24 40.132812 23.910156 C 40.136719 23.6875 40.136719 23.464844 40.136719 23.242188 Z M 40.136719 23.242188 "/>
<path style=" stroke:none;fill-rule:nonzero;fill:rgb(5.098039%,15.294118%,27.058825%);fill-opacity:1;" d="M 44.777344 23.242188 C 44.96875 23.242188 45.160156 23.242188 45.363281 23.242188 C 45.363281 23.296875 45.363281 23.347656 45.363281 23.402344 C 45.367188 23.601562 45.371094 23.800781 45.375 24 C 45.375 24.085938 45.378906 24.171875 45.378906 24.257812 C 45.378906 24.382812 45.382812 24.507812 45.386719 24.628906 C 45.386719 24.667969 45.386719 24.707031 45.386719 24.746094 C 45.390625 24.96875 45.417969 25.117188 45.558594 25.292969 C 45.726562 25.378906 45.910156 25.359375 46.09375 25.339844 C 46.238281 25.285156 46.238281 25.285156 46.339844 25.195312 C 46.398438 25.011719 46.398438 24.832031 46.402344 24.640625 C 46.402344 24.597656 46.402344 24.558594 46.40625 24.519531 C 46.410156 24.390625 46.410156 24.265625 46.414062 24.136719 C 46.417969 24.050781 46.417969 23.964844 46.421875 23.878906 C 46.425781 23.664062 46.429688 23.453125 46.433594 23.242188 C 46.628906 23.242188 46.824219 23.242188 47.019531 23.242188 C 47.019531 24.113281 47.019531 24.980469 47.019531 25.878906 C 46.875 25.878906 46.730469 25.878906 46.582031 25.878906 C 46.558594 25.78125 46.558594 25.78125 46.535156 25.683594 C 46.507812 25.695312 46.480469 25.710938 46.453125 25.722656 C 46.402344 25.75 46.402344 25.75 46.351562 25.777344 C 46.300781 25.804688 46.300781 25.804688 46.246094 25.832031 C 45.953125 25.964844 45.605469 25.980469 45.296875 25.894531 C 45.039062 25.78125 44.941406 25.640625 44.824219 25.390625 C 44.808594 25.359375 44.792969 25.324219 44.777344 25.292969 C 44.769531 25.226562 44.769531 25.160156 44.769531 25.09375 C 44.769531 25.050781 44.769531 25.011719 44.769531 24.96875 C 44.769531 24.925781 44.769531 24.878906 44.769531 24.835938 C 44.769531 24.789062 44.769531 24.742188 44.769531 24.699219 C 44.769531 24.550781 44.773438 24.40625 44.773438 24.261719 C 44.773438 24.164062 44.773438 24.066406 44.773438 23.964844 C 44.773438 23.726562 44.773438 23.484375 44.777344 23.242188 Z M 44.777344 23.242188 "/>
<path style=" stroke:none;fill-rule:nonzero;fill:rgb(4.705882%,14.509805%,27.058825%);fill-opacity:1;" d="M 44.433594 23.191406 C 44.433594 23.386719 44.433594 23.582031 44.433594 23.777344 C 44.351562 23.785156 44.265625 23.789062 44.179688 23.792969 C 43.96875 23.8125 43.820312 23.835938 43.652344 23.972656 C 43.574219 24.132812 43.589844 24.304688 43.589844 24.476562 C 43.585938 24.515625 43.585938 24.558594 43.585938 24.597656 C 43.582031 24.726562 43.578125 24.855469 43.574219 24.980469 C 43.574219 25.066406 43.570312 25.15625 43.570312 25.242188 C 43.5625 25.453125 43.558594 25.667969 43.554688 25.878906 C 43.34375 25.878906 43.136719 25.878906 42.917969 25.878906 C 42.917969 25.007812 42.917969 24.136719 42.917969 23.242188 C 43.113281 23.242188 43.308594 23.242188 43.503906 23.242188 C 43.503906 23.324219 43.503906 23.402344 43.503906 23.488281 C 43.535156 23.464844 43.566406 23.445312 43.597656 23.421875 C 43.894531 23.226562 44.078125 23.160156 44.433594 23.191406 Z M 44.433594 23.191406 "/>
<path style=" stroke:none;fill-rule:nonzero;fill:rgb(5.490196%,16.470589%,29.019609%);fill-opacity:1;" d="M 28.855469 23.191406 C 28.855469 23.386719 28.855469 23.582031 28.855469 23.777344 C 28.8125 23.785156 28.769531 23.789062 28.722656 23.796875 C 28.667969 23.804688 28.609375 23.8125 28.550781 23.820312 C 28.492188 23.828125 28.433594 23.832031 28.375 23.839844 C 28.214844 23.878906 28.175781 23.898438 28.074219 24.023438 C 28.058594 24.171875 28.050781 24.308594 28.050781 24.453125 C 28.050781 24.496094 28.050781 24.539062 28.046875 24.582031 C 28.046875 24.714844 28.042969 24.851562 28.042969 24.984375 C 28.039062 25.074219 28.039062 25.167969 28.039062 25.257812 C 28.035156 25.480469 28.03125 25.703125 28.027344 25.925781 C 27.816406 25.925781 27.609375 25.925781 27.394531 25.925781 C 27.394531 25.042969 27.394531 24.15625 27.394531 23.242188 C 27.570312 23.242188 27.746094 23.242188 27.929688 23.242188 C 27.945312 23.324219 27.960938 23.402344 27.980469 23.488281 C 28.007812 23.464844 28.039062 23.445312 28.070312 23.421875 C 28.351562 23.242188 28.523438 23.15625 28.855469 23.191406 Z M 28.855469 23.191406 "/>
<path style=" stroke:none;fill-rule:nonzero;fill:rgb(4.705882%,14.901961%,27.450982%);fill-opacity:1;" d="M 36.082031 23.191406 C 36.082031 23.386719 36.082031 23.582031 36.082031 23.777344 C 35.953125 23.785156 35.820312 23.789062 35.6875 23.792969 C 35.492188 23.839844 35.425781 23.914062 35.300781 24.074219 C 35.265625 24.210938 35.265625 24.347656 35.269531 24.492188 C 35.265625 24.53125 35.265625 24.570312 35.265625 24.613281 C 35.265625 24.738281 35.261719 24.863281 35.261719 24.992188 C 35.261719 25.078125 35.261719 25.164062 35.257812 25.25 C 35.257812 25.457031 35.253906 25.667969 35.253906 25.878906 C 35.042969 25.878906 34.835938 25.878906 34.621094 25.878906 C 34.617188 25.511719 34.617188 25.144531 34.617188 24.777344 C 34.617188 24.652344 34.617188 24.527344 34.617188 24.398438 C 34.613281 24.222656 34.613281 24.042969 34.613281 23.863281 C 34.613281 23.804688 34.613281 23.75 34.613281 23.691406 C 34.613281 23.640625 34.613281 23.585938 34.613281 23.535156 C 34.613281 23.488281 34.613281 23.441406 34.613281 23.394531 C 34.621094 23.292969 34.621094 23.292969 34.667969 23.242188 C 34.75 23.238281 34.832031 23.238281 34.914062 23.238281 C 34.960938 23.238281 35.003906 23.238281 35.050781 23.242188 C 35.085938 23.242188 35.121094 23.242188 35.15625 23.242188 C 35.171875 23.324219 35.1875 23.402344 35.207031 23.488281 C 35.234375 23.464844 35.265625 23.445312 35.296875 23.421875 C 35.578125 23.242188 35.75 23.15625 36.082031 23.191406 Z M 36.082031 23.191406 "/>
<path style=" stroke:none;fill-rule:nonzero;fill:rgb(5.098039%,14.509805%,26.274511%);fill-opacity:1;" d="M 20.019531 22.265625 C 20.214844 22.265625 20.40625 22.265625 20.605469 22.265625 C 20.605469 23.457031 20.605469 24.652344 20.605469 25.878906 C 20.410156 25.878906 20.21875 25.878906 20.019531 25.878906 C 20.019531 24.6875 20.019531 23.496094 20.019531 22.265625 Z M 20.019531 22.265625 "/>
<path style=" stroke:none;fill-rule:nonzero;fill:rgb(96.862745%,97.647059%,98.039216%);fill-opacity:1;" d="M 25.941406 24.699219 C 25.996094 24.699219 25.996094 24.699219 26.050781 24.699219 C 26.140625 24.703125 26.230469 24.703125 26.316406 24.707031 C 26.324219 25.113281 26.324219 25.113281 26.222656 25.246094 C 25.996094 25.40625 25.78125 25.410156 25.511719 25.414062 C 25.390625 25.390625 25.390625 25.390625 25.300781 25.300781 C 25.214844 25.136719 25.242188 25.03125 25.292969 24.855469 C 25.496094 24.683594 25.691406 24.6875 25.941406 24.699219 Z M 25.941406 24.699219 "/>
<path style=" stroke:none;fill-rule:nonzero;fill:rgb(96.862745%,97.254902%,97.647059%);fill-opacity:1;" d="M 17.871094 23.144531 C 18 23.257812 18.050781 23.351562 18.105469 23.515625 C 18.121094 23.558594 18.132812 23.601562 18.148438 23.644531 C 18.164062 23.6875 18.179688 23.734375 18.195312 23.777344 C 18.21875 23.847656 18.21875 23.847656 18.242188 23.914062 C 18.28125 24.03125 18.320312 24.148438 18.359375 24.269531 C 18.375 24.316406 18.390625 24.363281 18.410156 24.414062 C 18.085938 24.414062 17.761719 24.414062 17.433594 24.414062 C 17.5 24.207031 17.5 24.207031 17.570312 24 C 17.582031 23.957031 17.597656 23.914062 17.609375 23.871094 C 17.691406 23.625 17.777344 23.386719 17.871094 23.144531 Z M 17.871094 23.144531 "/>
<path style=" stroke:none;fill-rule:nonzero;fill:rgb(19.215687%,43.529412%,91.37255%);fill-opacity:1;" d="M 12.671875 18.875 C 12.75 18.875 12.75 18.875 12.832031 18.875 C 12.890625 18.875 12.949219 18.875 13.007812 18.878906 C 13.066406 18.878906 13.128906 18.878906 13.1875 18.878906 C 13.378906 18.878906 13.566406 18.882812 13.757812 18.882812 C 13.886719 18.886719 14.015625 18.886719 14.144531 18.886719 C 14.457031 18.890625 14.773438 18.890625 15.085938 18.894531 C 15.085938 18.929688 15.085938 18.960938 15.085938 18.992188 C 15.054688 18.992188 15.023438 18.992188 14.988281 18.992188 C 14.988281 19.800781 14.988281 20.605469 14.988281 21.433594 C 14.972656 21.433594 14.957031 21.433594 14.941406 21.433594 C 14.941406 20.644531 14.941406 19.855469 14.941406 19.042969 C 14.589844 19.046875 14.234375 19.050781 13.882812 19.058594 C 13.761719 19.058594 13.644531 19.0625 13.523438 19.0625 C 13.351562 19.066406 13.179688 19.070312 13.003906 19.070312 C 12.953125 19.070312 12.898438 19.074219 12.84375 19.074219 C 12.792969 19.074219 12.742188 19.074219 12.691406 19.078125 C 12.648438 19.078125 12.601562 19.078125 12.558594 19.078125 C 12.441406 19.082031 12.441406 19.082031 12.351562 19.1875 C 12.320312 19.289062 12.320312 19.289062 12.304688 19.382812 C 12.257812 19.382812 12.207031 19.382812 12.15625 19.382812 C 12.171875 19.21875 12.1875 19.117188 12.289062 18.984375 C 12.429688 18.875 12.496094 18.871094 12.671875 18.875 Z M 12.671875 18.875 "/>
<path style=" stroke:none;fill-rule:nonzero;fill:rgb(98.039216%,98.431373%,98.431373%);fill-opacity:1;" d="M 30.519531 23.730469 C 30.699219 23.828125 30.792969 23.898438 30.910156 24.074219 C 30.910156 24.136719 30.910156 24.199219 30.910156 24.269531 C 30.503906 24.269531 30.101562 24.269531 29.6875 24.269531 C 29.742188 24.042969 29.824219 23.945312 29.980469 23.777344 C 30.164062 23.71875 30.328125 23.703125 30.519531 23.730469 Z M 30.519531 23.730469 "/>
<path style=" stroke:none;fill-rule:nonzero;fill:rgb(97.647059%,98.039216%,98.431373%);fill-opacity:1;" d="M 33.253906 23.730469 C 33.464844 23.839844 33.589844 23.953125 33.691406 24.167969 C 33.691406 24.203125 33.691406 24.234375 33.691406 24.269531 C 33.273438 24.269531 32.855469 24.269531 32.421875 24.269531 C 32.535156 23.929688 32.535156 23.929688 32.761719 23.777344 C 32.941406 23.71875 33.066406 23.714844 33.253906 23.730469 Z M 33.253906 23.730469 "/>
<path style=" stroke:none;fill-rule:nonzero;fill:rgb(13.725491%,19.607843%,30.19608%);fill-opacity:1;" d="M 27.394531 23.242188 C 27.570312 23.242188 27.746094 23.242188 27.929688 23.242188 C 27.914062 23.289062 27.898438 23.339844 27.878906 23.386719 C 27.753906 23.371094 27.621094 23.355469 27.488281 23.339844 C 27.488281 24.160156 27.488281 24.984375 27.488281 25.832031 C 27.667969 25.832031 27.84375 25.832031 28.027344 25.832031 C 28.027344 25.863281 28.027344 25.894531 28.027344 25.925781 C 27.816406 25.925781 27.609375 25.925781 27.394531 25.925781 C 27.394531 25.042969 27.394531 24.15625 27.394531 23.242188 Z M 27.394531 23.242188 "/>
<path style=" stroke:none;fill-rule:nonzero;fill:rgb(0.784314%,5.098039%,17.254902%);fill-opacity:1;" d="M 40.136719 23.242188 C 40.332031 23.242188 40.523438 23.242188 40.722656 23.242188 C 40.722656 23.824219 40.722656 24.402344 40.722656 25 C 40.707031 25 40.691406 25 40.675781 25 C 40.675781 24.453125 40.675781 23.902344 40.675781 23.339844 C 40.527344 23.339844 40.382812 23.339844 40.234375 23.339844 C 40.234375 23.386719 40.234375 23.429688 40.234375 23.476562 C 40.238281 23.644531 40.238281 23.8125 40.238281 23.976562 C 40.238281 24.050781 40.242188 24.125 40.242188 24.195312 C 40.242188 24.300781 40.242188 24.402344 40.242188 24.507812 C 40.246094 24.570312 40.246094 24.632812 40.246094 24.699219 C 40.234375 24.855469 40.234375 24.855469 40.136719 25 C 40.136719 24.417969 40.136719 23.839844 40.136719 23.242188 Z M 40.136719 23.242188 "/>
<path style=" stroke:none;fill-rule:nonzero;fill:rgb(7.450981%,34.509805%,89.019608%);fill-opacity:1;" d="M 12.890625 23.878906 C 12.90625 23.878906 12.921875 23.878906 12.941406 23.878906 C 12.976562 24.042969 12.992188 24.199219 12.992188 24.371094 C 12.992188 24.4375 12.992188 24.4375 12.992188 24.507812 C 12.992188 24.554688 12.992188 24.601562 12.992188 24.648438 C 12.992188 24.695312 12.992188 24.746094 12.992188 24.792969 C 12.988281 24.910156 12.988281 25.027344 12.988281 25.144531 C 12.957031 25.144531 12.925781 25.144531 12.890625 25.144531 C 12.875 25.179688 12.859375 25.210938 12.839844 25.246094 C 12.859375 24.792969 12.875 24.339844 12.890625 23.878906 Z M 12.890625 23.878906 "/>
<path style=" stroke:none;fill-rule:nonzero;fill:rgb(6.27451%,32.156864%,89.803922%);fill-opacity:1;" d="M 12.058594 26.855469 C 12.058594 27.003906 12.058594 27.003906 12.003906 27.078125 C 11.976562 27.101562 11.949219 27.128906 11.921875 27.15625 C 11.878906 27.199219 11.878906 27.199219 11.835938 27.242188 C 11.804688 27.269531 11.773438 27.296875 11.742188 27.328125 C 11.710938 27.359375 11.683594 27.386719 11.652344 27.417969 C 11.578125 27.492188 11.5 27.5625 11.425781 27.636719 C 11.378906 27.621094 11.328125 27.605469 11.277344 27.589844 C 11.320312 27.550781 11.359375 27.515625 11.402344 27.476562 C 11.453125 27.429688 11.507812 27.378906 11.558594 27.332031 C 11.585938 27.308594 11.613281 27.285156 11.640625 27.257812 C 11.785156 27.128906 11.925781 26.996094 12.058594 26.855469 Z M 12.058594 26.855469 "/>
<path style=" stroke:none;fill-rule:nonzero;fill:rgb(12.156863%,35.686275%,89.019608%);fill-opacity:1;" d="M 11.132812 19.972656 C 11.363281 20.011719 11.363281 20.011719 11.472656 20.066406 C 11.457031 20.210938 11.4375 20.253906 11.324219 20.347656 C 11.292969 20.371094 11.261719 20.390625 11.230469 20.410156 C 11.261719 20.296875 11.292969 20.183594 11.328125 20.066406 C 11.261719 20.035156 11.199219 20.003906 11.132812 19.972656 Z M 11.132812 19.972656 "/>
<path style=" stroke:none;fill-rule:nonzero;fill:rgb(4.313726%,27.058825%,79.215688%);fill-opacity:1;" d="M 11.082031 22.070312 C 11.101562 22.101562 11.117188 22.136719 11.132812 22.167969 C 11.066406 22.25 11.003906 22.328125 10.9375 22.410156 C 10.890625 22.394531 10.839844 22.378906 10.792969 22.363281 C 10.886719 22.265625 10.984375 22.167969 11.082031 22.070312 Z M 11.082031 22.070312 "/>
</g>
</svg>
